<svg width="573" height="415" viewBox="0 0 573 415" fill="none" xmlns="http://www.w3.org/2000/svg">
<path fill-rule="evenodd" clip-rule="evenodd" d="M89.3915 404.943C89.3915 410.39 84.9748 414.807 79.527 414.807C74.0739 414.807 69.6572 410.39 69.6572 404.943C69.6572 399.495 74.0739 395.078 79.527 395.078C84.9748 395.078 89.3915 399.495 89.3915 404.943Z" fill="white"/>
<path fill-rule="evenodd" clip-rule="evenodd" d="M20.325 108.942H197.925C203.373 108.942 207.79 104.52 207.79 99.0773C207.79 93.6295 203.368 89.2128 197.925 89.2128H20.325V30.0155C20.325 24.5676 24.7468 20.1509 30.1895 20.1509H493.909C499.357 20.1509 503.774 15.7291 503.774 10.2864C503.774 4.83855 499.352 0.421875 493.909 0.421875H30.1895C13.8402 0.421875 0.59082 13.6719 0.59082 30.0205V385.207C0.59082 401.557 13.8408 414.806 30.1895 414.806H49.9242C55.372 414.806 59.7887 410.384 59.7887 404.941C59.7887 399.493 55.3668 395.077 49.9242 395.077H30.1895C24.7416 395.077 20.325 390.655 20.325 385.212V108.942Z" fill="white"/>
<path fill-rule="evenodd" clip-rule="evenodd" d="M553.098 89.2084H227.511C222.064 89.2084 217.647 93.6303 217.647 99.0729C217.647 104.521 222.069 108.937 227.511 108.937H553.098V385.191C553.098 390.639 548.676 395.055 543.234 395.055H109.114C103.666 395.055 99.249 399.477 99.249 404.92C99.249 410.368 103.671 414.784 109.114 414.784H543.234C559.583 414.784 572.832 401.534 572.832 385.186V29.9991C572.832 13.6497 559.582 0.400391 543.234 0.400391H523.499C518.051 0.400391 513.634 4.82227 513.634 10.2649C513.634 15.7128 518.056 20.1295 523.499 20.1295H543.234C548.681 20.1295 553.098 24.5513 553.098 29.994V89.2084Z" fill="white"/>
<path fill-rule="evenodd" clip-rule="evenodd" d="M312.338 330.941H59.7913C54.3434 330.941 49.9268 335.363 49.9268 340.806C49.9268 346.254 54.3486 350.67 59.7913 350.67H312.338C317.786 350.67 322.203 346.249 322.203 340.806C322.203 335.358 317.781 330.941 312.338 330.941Z" fill="white"/>
<path fill-rule="evenodd" clip-rule="evenodd" d="M296.578 281.609H59.7913C54.3434 281.609 49.9268 286.031 49.9268 291.474C49.9268 296.922 54.3486 301.338 59.7913 301.338H296.578C302.026 301.338 306.443 296.917 306.443 291.474C306.443 286.026 302.021 281.609 296.578 281.609Z" fill="white"/>
<path fill-rule="evenodd" clip-rule="evenodd" d="M513.645 222.408H257.125C251.677 222.408 247.261 226.83 247.261 232.273C247.261 237.721 251.683 242.137 257.125 242.137H513.645C519.093 242.137 523.51 237.715 523.51 232.273C523.51 226.825 519.088 222.408 513.645 222.408Z" fill="white"/>
<path fill-rule="evenodd" clip-rule="evenodd" d="M513.645 178.008H286.725C281.277 178.008 276.86 182.43 276.86 187.872C276.86 193.32 281.282 197.737 286.725 197.737H513.645C519.093 197.737 523.509 193.315 523.509 187.872C523.509 182.424 519.088 178.008 513.645 178.008Z" fill="white"/>
<path fill-rule="evenodd" clip-rule="evenodd" d="M513.645 133.609H257.125C251.677 133.609 247.261 138.031 247.261 143.474C247.261 148.922 251.683 153.338 257.125 153.338H513.645C519.093 153.338 523.51 148.917 523.51 143.474C523.51 138.026 519.088 133.609 513.645 133.609Z" fill="white"/>
<path fill-rule="evenodd" clip-rule="evenodd" d="M69.6586 54.6743C69.6586 62.8513 63.0335 69.477 54.8613 69.477C46.6842 69.477 40.0586 62.8519 40.0586 54.6743C40.0586 46.5024 46.6837 39.877 54.8613 39.877C63.0331 39.877 69.6586 46.502 69.6586 54.6743Z" fill="white"/>
<path fill-rule="evenodd" clip-rule="evenodd" d="M118.992 54.6743C118.992 62.8513 112.367 69.477 104.189 69.477C96.0171 69.477 89.3916 62.8519 89.3916 54.6743C89.3916 46.5024 96.0167 39.877 104.189 39.877C112.366 39.877 118.992 46.502 118.992 54.6743Z" fill="white"/>
<path fill-rule="evenodd" clip-rule="evenodd" d="M168.311 54.6743C168.311 62.8513 161.686 69.477 153.514 69.477C145.342 69.477 138.717 62.8519 138.717 54.6743C138.717 46.5024 145.342 39.877 153.514 39.877C161.686 39.877 168.311 46.502 168.311 54.6743Z" fill="white"/>
<path fill-rule="evenodd" clip-rule="evenodd" d="M175.098 150.368L204.983 180.993C208.723 184.821 208.723 190.936 204.983 194.764L175.098 225.389C171.301 229.285 171.369 235.53 175.265 239.342C179.161 243.139 185.416 243.061 189.218 239.165C189.218 239.165 206.374 221.592 219.103 208.551C230.322 197.056 230.322 178.707 219.103 167.212C206.374 154.17 189.218 136.597 189.218 136.597C185.421 132.701 179.166 132.623 175.265 136.42C171.369 140.227 171.296 146.472 175.098 150.373V150.368Z" fill="white"/>
<path fill-rule="evenodd" clip-rule="evenodd" d="M471.085 278.635L500.971 309.261C504.71 313.089 504.71 319.203 500.971 323.031L471.085 353.657C467.288 357.552 467.356 363.797 471.252 367.61C475.148 371.407 481.403 371.329 485.205 367.433C485.205 367.433 502.361 349.859 515.091 336.818C526.309 325.323 526.309 306.974 515.091 295.479C502.361 282.438 485.205 264.865 485.205 264.865C481.408 260.969 475.153 260.891 471.252 264.688C467.356 268.495 467.283 274.74 471.085 278.641V278.635Z" fill="white"/>
<path fill-rule="evenodd" clip-rule="evenodd" d="M88.2184 136.595C88.2184 136.595 71.0624 154.169 58.333 167.21C47.1142 178.705 47.1142 197.054 58.333 208.549C71.0622 221.59 88.2184 239.163 88.2184 239.163C92.0153 243.059 98.2705 243.137 102.172 239.34C106.068 235.533 106.141 229.288 102.338 225.387L72.453 194.762C68.7134 190.933 68.7134 184.819 72.453 180.991L102.338 150.366C106.135 146.47 106.068 140.225 102.172 136.412C98.2758 132.615 92.0206 132.693 88.2184 136.589V136.595Z" fill="white"/>
<path fill-rule="evenodd" clip-rule="evenodd" d="M384.205 264.849C384.205 264.849 367.049 282.422 354.319 295.464C343.101 306.959 343.101 325.308 354.319 336.802C367.049 349.844 384.205 367.417 384.205 367.417C388.002 371.313 394.257 371.391 398.158 367.594C402.054 363.787 402.127 357.542 398.325 353.641L368.439 323.016C364.7 319.187 364.7 313.073 368.439 309.245L398.325 278.62C402.122 274.724 402.054 268.479 398.158 264.666C394.262 260.869 388.007 260.947 384.205 264.843V264.849Z" fill="white"/>
<path fill-rule="evenodd" clip-rule="evenodd" d="M138.898 148.354L119.305 222.349C117.914 227.62 121.06 233.016 126.32 234.417C131.591 235.807 136.987 232.662 138.388 227.401L157.972 153.407C159.363 148.136 156.227 142.74 150.956 141.339C145.696 139.948 140.29 143.094 138.899 148.354H138.898Z" fill="white"/>
<path fill-rule="evenodd" clip-rule="evenodd" d="M429.778 295.889V286.025H439.643V306.609L427.736 318.515C425.882 320.369 424.846 322.874 424.846 325.489V335.354C424.846 340.801 429.268 345.218 434.71 345.218C440.158 345.218 444.575 340.796 444.575 335.354V329.583L456.481 317.677C458.335 315.822 459.372 313.317 459.372 310.692V276.161C459.372 270.714 454.95 266.297 449.507 266.297H419.908C414.461 266.297 410.044 270.719 410.044 276.161V295.896C410.044 301.344 414.466 305.761 419.908 305.761C425.356 305.761 429.773 301.339 429.773 295.896L429.778 295.889Z" fill="white"/>
<path fill-rule="evenodd" clip-rule="evenodd" d="M444.578 360.542C444.578 365.995 440.156 370.412 434.708 370.412C429.26 370.412 424.844 365.995 424.844 360.542C424.844 355.094 429.26 350.678 434.708 350.678C440.156 350.678 444.578 355.094 444.578 360.542Z" fill="white"/>
</svg>