<svg width="466" height="574" viewBox="0 0 466 574" fill="none" xmlns="http://www.w3.org/2000/svg">
<path fill-rule="evenodd" clip-rule="evenodd" d="M233.231 0.8125C171.179 0.8125 115.028 7.89583 73.5241 19.6765C52.7695 25.5672 35.7068 32.541 22.9775 41.0832C10.2481 49.6253 0.758789 60.6925 0.758789 74.5205V499.427C0.758789 513.255 10.2484 524.375 22.9775 532.917C35.7065 541.458 52.7695 548.438 73.5241 554.329C115.035 566.11 171.185 573.135 233.231 573.135C295.283 573.135 351.449 566.109 392.964 554.329C413.719 548.438 430.855 541.464 443.589 532.917C456.319 524.375 465.787 513.25 465.787 499.427V74.5205C465.787 60.6925 456.318 49.6298 443.589 41.0885C430.861 32.5472 413.72 25.5672 392.964 19.6765C351.453 7.89529 295.287 0.8125 233.231 0.8125ZM233.231 22.4325C293.627 22.4325 348.387 29.4377 387.124 40.4325C406.488 45.9273 421.853 52.495 431.561 59.0112C441.269 65.5273 444.166 70.9748 444.166 74.5218C444.166 78.074 441.27 83.5948 431.561 90.1098C421.853 96.6249 406.493 103.172 387.124 108.667C348.389 119.662 293.629 126.667 233.231 126.667C172.832 126.667 118.152 119.662 79.4174 108.667C60.0534 103.172 44.6881 96.6256 34.9801 90.1098C25.2721 83.5941 22.3968 78.0682 22.3968 74.5218C22.3968 70.9697 25.2717 65.5218 34.9801 59.0112C44.6884 52.4956 60.0481 45.933 79.4174 40.4325C118.152 29.4377 172.833 22.4325 233.231 22.4325V22.4325ZM22.4041 107.604C22.5968 107.74 22.7843 107.875 22.9822 108.011C35.7114 116.552 52.7743 123.547 73.5289 129.437C115.04 141.219 171.19 148.301 233.236 148.301C295.288 148.301 351.454 141.218 392.969 129.437C413.724 123.547 430.86 116.552 443.594 108.011C443.792 107.875 443.975 107.74 444.172 107.604V216.172C444.172 219.725 441.277 225.172 431.568 231.683C421.86 238.199 406.5 244.839 387.131 250.334C348.396 261.329 293.636 268.313 233.238 268.313C172.839 268.313 118.159 261.328 79.4242 250.334C60.0549 244.844 44.6949 238.198 34.9869 231.683C25.2786 225.173 22.4036 219.725 22.4036 216.172V178.943C28.539 183.151 35.7369 186.938 43.9449 190.469C68.8769 201.193 103.32 209.386 144.825 214.422V214.417C150.736 215.141 156.117 210.943 156.851 205.037C157.195 202.183 156.393 199.308 154.611 197.053C152.83 194.792 150.226 193.339 147.367 193.011C107.273 188.141 74.4132 180.011 52.4812 170.579C41.5176 165.865 33.3772 160.772 28.5118 156.224C23.6473 151.677 22.4025 148.412 22.4025 145.896L22.4041 107.604ZM216.124 197.828H216.119C210.171 197.709 205.249 202.438 205.119 208.386C205.015 214.334 209.733 219.245 215.676 219.37C221.536 219.5 227.353 219.599 233.234 219.599C234.244 219.599 235.286 219.605 236.296 219.599V219.605C239.166 219.599 241.916 218.448 243.937 216.412C245.958 214.381 247.083 211.62 247.067 208.756C247.067 205.881 245.921 203.131 243.885 201.105C241.854 199.079 239.093 197.948 236.218 197.964C235.234 197.969 234.218 197.964 233.234 197.964C227.515 197.964 221.822 197.959 216.124 197.829L216.124 197.828ZM22.4041 249.282C22.5968 249.417 22.7843 249.553 22.9822 249.688C35.7114 258.23 52.7743 265.209 73.5289 271.1C115.04 282.881 171.19 289.887 233.236 289.887C295.288 289.887 351.454 282.882 392.969 271.1C413.724 265.209 430.86 258.236 443.594 249.688C443.792 249.558 443.975 249.417 444.172 249.282V357.829C444.172 361.381 441.277 366.828 431.568 373.339C421.86 379.855 406.5 386.417 387.131 391.918C348.396 402.913 293.636 409.918 233.238 409.918C172.839 409.918 118.159 402.913 79.4242 391.918C60.0549 386.418 44.6949 379.855 34.9869 373.339C25.2786 366.824 22.4036 361.376 22.4036 357.829V320.464C28.539 324.673 35.7369 328.438 43.9449 331.97C68.8769 342.694 103.32 350.902 144.825 355.943V355.938C150.742 356.662 156.127 352.453 156.851 346.537C157.189 343.683 156.382 340.818 154.601 338.563C152.825 336.308 150.221 334.86 147.367 334.532C107.273 329.662 74.4132 321.589 52.4812 312.157C41.5176 307.443 33.3772 302.365 28.5118 297.818C23.6473 293.271 22.4025 289.912 22.4025 287.396L22.4041 249.282ZM216.124 339.329H216.119C210.171 339.214 205.244 343.938 205.119 349.886C205.004 355.839 209.728 360.761 215.676 360.891C221.536 361.021 227.353 361.105 233.234 361.105C234.244 361.105 235.286 361.11 236.296 361.105C239.166 361.099 241.916 359.948 243.937 357.912C245.958 355.881 247.083 353.12 247.067 350.256C247.015 344.308 242.166 339.526 236.218 339.558C235.234 339.563 234.218 339.558 233.234 339.558C227.515 339.558 221.822 339.459 216.124 339.329L216.124 339.329ZM22.4041 390.855C22.5968 390.991 22.7843 391.126 22.9822 391.261C35.7114 399.803 52.7743 406.783 73.5289 412.673C115.04 424.455 171.19 431.537 233.236 431.537C295.288 431.537 351.454 424.454 392.969 412.673C413.724 406.783 430.86 399.809 443.594 391.261C443.792 391.131 443.975 390.991 444.172 390.855V499.423C444.172 502.975 441.277 508.423 431.568 514.934C421.86 521.449 406.5 528.069 387.131 533.57C348.396 544.565 293.636 551.57 233.238 551.57C172.839 551.57 118.159 544.565 79.4242 533.57C60.0549 528.075 44.6949 521.45 34.9869 514.939C25.2786 508.424 22.4036 502.976 22.4036 499.423V459.71C28.539 463.918 35.7369 467.705 43.9449 471.236C68.8769 481.96 103.32 490.153 144.825 495.189V495.184C150.736 495.908 156.117 491.71 156.851 485.799C157.195 482.95 156.393 480.074 154.611 477.814C152.83 475.559 150.226 474.106 147.367 473.778C107.273 468.908 74.4132 460.856 52.4812 451.423C41.5176 446.704 33.3772 441.553 28.5118 437.007C23.9493 432.747 22.5588 429.596 22.4025 427.143C22.3921 426.976 22.4025 426.82 22.4025 426.658L22.4041 390.855ZM216.124 478.59L216.119 478.595C210.171 478.475 205.249 483.199 205.119 489.152C205.015 495.1 209.733 500.007 215.676 500.137C221.536 500.267 227.353 500.366 233.234 500.366C234.244 500.366 235.286 500.371 236.296 500.366V500.371C239.166 500.361 241.916 499.215 243.937 497.178C245.958 495.142 247.083 492.387 247.067 489.517C247.025 483.569 242.171 478.777 236.218 478.803C235.234 478.809 234.218 478.803 233.234 478.803C227.515 478.803 221.822 478.72 216.124 478.59H216.124Z" fill="white"/>
</svg>