<svg width="619" height="587" viewBox="0 0 619 587" fill="none" xmlns="http://www.w3.org/2000/svg">
<path d="M611.027 444.035H7.64058C3.71352 444.035 0.625 440.947 0.625 437.019C0.625 433.092 3.71352 430.004 7.64058 430.004H611.014C614.941 430.004 618.03 433.092 618.03 437.019C618.035 440.947 614.946 444.035 611.019 444.035H611.027Z" fill="white"/>
<path d="M567.667 502.541H51.0007C23.2193 502.541 0.625977 479.953 0.625977 452.167V141.353C0.625977 113.572 23.2193 90.9785 51.0007 90.9785H107.689C111.616 90.9785 114.704 94.0671 114.704 97.9941C114.704 101.921 111.616 105.01 107.689 105.01H51.0007C30.9327 105.01 14.6567 121.286 14.6567 141.354V452.167C14.6567 472.235 30.9327 488.511 51.0007 488.511H567.667C587.735 488.511 604.011 472.235 604.011 452.167L604.006 141.354C604.006 121.286 587.73 105.01 567.662 105.01H510.974C507.047 105.01 503.959 101.921 503.959 97.9941C503.959 94.0671 507.047 90.9785 510.974 90.9785H567.662C595.443 90.9785 618.037 113.572 618.037 141.353L618.042 452.167C618.042 479.953 595.449 502.541 567.667 502.541Z" fill="white"/>
<path d="M364.201 586.315C361.675 586.315 359.289 584.914 358.029 582.529C342.45 552.92 342.45 523.316 358.029 492.305C359.711 488.795 363.925 487.394 367.43 489.216C370.94 490.899 372.341 495.112 370.518 498.618C356.909 525.7 356.909 550.253 370.518 576.076C372.341 579.446 370.94 583.795 367.571 585.618C366.451 586.034 365.326 586.316 364.201 586.316L364.201 586.315ZM254.471 586.315C253.346 586.315 252.227 586.034 251.242 585.472C247.872 583.649 246.471 579.44 248.294 575.93C261.764 550.253 261.764 525.555 248.294 498.471C246.612 494.961 248.013 490.753 251.383 489.07C254.893 487.388 259.102 488.789 260.784 492.159C276.363 523.17 276.363 552.779 260.784 582.383C259.383 584.914 256.997 586.315 254.471 586.315V586.315Z" fill="white"/>
<path d="M397.454 586.314H221.214C217.287 586.314 214.198 583.226 214.198 579.299C214.198 575.372 217.287 572.283 221.214 572.283H397.601C401.528 572.283 404.616 575.372 404.616 579.299C404.621 583.231 401.392 586.314 397.465 586.314H397.454Z" fill="white"/>
<path d="M489.507 398.715H129.307C113.594 398.715 100.682 385.944 100.682 370.09V29.5296C100.682 13.8163 113.452 0.904297 129.307 0.904297H489.507C505.22 0.904297 518.132 13.6751 518.132 29.5296V370.09C517.992 385.808 505.226 398.72 489.507 398.72V398.715ZM129.307 14.9416C121.307 14.9416 114.714 21.5354 114.714 29.535V370.095C114.714 378.095 121.307 384.688 129.307 384.688H489.507C497.507 384.688 504.1 378.095 504.1 370.095V29.535C504.1 21.535 497.507 14.9416 489.507 14.9416H129.307Z" fill="white"/>
<path d="M510.974 96.3281H107.694C103.767 96.3281 100.679 93.2395 100.679 89.3125C100.679 85.3854 103.767 82.2969 107.694 82.2969H511.121C515.048 82.2969 518.137 85.3854 518.137 89.3125C518.137 93.2395 514.913 96.3281 510.98 96.3281H510.974Z" fill="white"/>
<path d="M159.614 70.2226C147.687 70.2226 138.005 60.5403 138.005 48.6132C138.005 36.681 147.687 27.0039 159.614 27.0039C171.541 27.0039 181.224 36.6862 181.224 48.6132C181.224 60.5403 171.541 70.2226 159.614 70.2226ZM159.614 41.0346C155.406 41.0346 152.036 44.4043 152.036 48.6127C152.036 52.8211 155.406 56.1908 159.614 56.1908C163.823 56.1908 167.192 52.8211 167.192 48.6127C167.192 44.3991 163.823 41.0346 159.614 41.0346Z" fill="white"/>
<path d="M217.707 70.2226C205.78 70.2226 196.098 60.5403 196.098 48.6132C196.098 36.681 205.78 27.0039 217.707 27.0039C229.634 27.0039 239.316 36.6862 239.316 48.6132C239.316 60.5403 229.634 70.2226 217.707 70.2226ZM217.707 41.0346C213.499 41.0346 210.129 44.4043 210.129 48.6127C210.129 52.8211 213.499 56.1908 217.707 56.1908C221.915 56.1908 225.285 52.8211 225.285 48.6127C225.28 44.3991 221.915 41.0346 217.707 41.0346Z" fill="white"/>
<path d="M275.801 70.2226C263.874 70.2226 254.191 60.5403 254.191 48.6132C254.191 36.681 263.874 27.0039 275.801 27.0039C287.728 27.0039 297.41 36.6862 297.41 48.6132C297.41 60.5403 287.728 70.2226 275.801 70.2226ZM275.801 41.0346C271.592 41.0346 268.223 44.4043 268.223 48.6127C268.223 52.8211 271.592 56.1908 275.801 56.1908C280.009 56.1908 283.379 52.8211 283.379 48.6127C283.379 44.3991 280.014 41.0346 275.801 41.0346Z" fill="white"/>
<path d="M414.574 55.6341H326.735C322.808 55.6341 319.72 52.5455 319.72 48.6185C319.72 44.6914 322.808 41.6029 326.735 41.6029L414.574 41.5977C418.501 41.5977 421.59 44.6862 421.59 48.6133C421.595 52.5455 418.366 55.6341 414.574 55.6341V55.6341Z" fill="white"/>
<path d="M474.361 55.6347H450.085C446.158 55.6347 443.069 52.5462 443.069 48.6191C443.069 44.6921 446.158 41.6035 450.085 41.6035H474.361C478.288 41.6035 481.377 44.6921 481.377 48.6191C481.377 52.5462 478.288 55.6347 474.361 55.6347Z" fill="white"/>
<path d="M462.28 67.8351C458.353 67.8351 455.265 64.7465 455.265 60.8195V36.5488C455.265 32.6217 458.353 29.5332 462.28 29.5332C466.207 29.5332 469.296 32.6217 469.296 36.5488V60.8248C469.296 64.6112 466.067 67.8352 462.28 67.8352V67.8351Z" fill="white"/>
<path d="M510.974 181.768H277.907C273.98 181.768 270.892 178.679 270.892 174.752C270.892 170.825 273.98 167.736 277.907 167.736H511.121C515.048 167.736 518.136 170.825 518.136 174.752C518.136 178.679 514.912 181.768 510.98 181.768H510.974ZM156.667 181.768H107.553C103.626 181.768 100.537 178.679 100.537 174.752C100.537 170.825 103.626 167.736 107.553 167.736H156.667C160.594 167.736 163.683 170.825 163.683 174.752C163.683 178.679 160.594 181.768 156.667 181.768Z" fill="white"/>
<path d="M217.281 242.395C179.958 242.395 149.645 212.088 149.645 174.759C149.645 137.436 179.951 107.123 217.281 107.123C254.603 107.123 284.917 137.43 284.917 174.759C284.917 212.082 254.605 242.395 217.281 242.395ZM217.281 121.296C187.811 121.296 163.677 145.291 163.677 174.9C163.677 204.51 187.671 228.504 217.281 228.504C246.89 228.504 270.885 204.51 270.885 174.9C270.879 145.291 246.745 121.296 217.281 121.296V121.296Z" fill="white"/>
<path d="M176.454 226.541C175.329 226.541 174.209 226.26 173.224 225.698C169.714 223.875 168.454 219.666 170.277 216.297C179.256 199.037 196.798 188.094 216.303 187.812H218.126C237.631 188.094 255.309 199.037 264.293 216.297C266.116 219.666 264.715 224.015 261.345 225.698C257.975 227.521 253.626 226.119 251.944 222.75C245.35 210.119 232.299 202.124 217.985 201.843H217.423H217.141H216.72C202.408 202.124 189.356 210.124 182.902 222.75C181.506 225.14 178.98 226.541 176.454 226.541L176.454 226.541Z" fill="white"/>
<path d="M217.281 201.848C200.021 201.848 186.13 187.818 186.13 170.698C186.13 153.578 200.161 139.547 217.281 139.547C234.401 139.547 248.431 153.578 248.431 170.698C248.431 187.812 234.401 201.848 217.281 201.848ZM217.281 153.436C207.879 153.436 200.161 161.155 200.161 170.556C200.161 179.957 207.879 187.676 217.281 187.676C226.682 187.676 234.401 179.957 234.401 170.556C234.401 161.155 226.682 153.436 217.281 153.436Z" fill="white"/>
<path d="M452.601 362.929H328.841C312.144 362.929 298.534 349.32 298.534 332.622V293.049C298.534 276.351 312.144 262.742 328.841 262.742H452.601C469.298 262.742 482.908 276.351 482.908 293.049V332.622C482.908 349.32 469.298 362.929 452.601 362.929ZM328.836 276.913C319.856 276.913 312.56 284.21 312.56 293.189V332.762C312.56 341.741 319.856 349.038 328.836 349.038H452.596C461.575 349.038 468.872 341.741 468.872 332.762V293.189C468.872 284.21 461.575 276.913 452.596 276.913H328.836Z" fill="white"/>
<path d="M458.641 232.568H322.814C318.887 232.568 315.799 229.48 315.799 225.553C315.799 221.626 318.887 218.537 322.814 218.537H458.641C462.568 218.537 465.657 221.626 465.657 225.553C465.657 229.48 462.568 232.568 458.641 232.568Z" fill="white"/>
<path d="M264.427 319.848H142.771C138.844 319.848 135.756 316.759 135.756 312.832C135.756 308.905 138.844 305.816 142.771 305.816H264.427C268.355 305.816 271.443 308.905 271.443 312.832C271.443 316.764 268.355 319.848 264.427 319.848Z" fill="white"/>
<path d="M264.427 281.969H142.771C138.844 281.969 135.756 278.88 135.756 274.953C135.756 271.026 138.844 267.938 142.771 267.938H264.427C268.355 267.938 271.443 271.026 271.443 274.953C271.443 278.885 268.355 281.969 264.427 281.969Z" fill="white"/>
<path d="M264.427 357.741H142.771C138.844 357.741 135.756 354.653 135.756 350.726C135.756 346.799 138.844 343.71 142.771 343.71L264.427 343.705C268.355 343.705 271.443 346.794 271.443 350.721C271.443 354.653 268.355 357.741 264.427 357.741V357.741Z" fill="white"/>
</svg>