<svg width="426" height="404" viewBox="0 0 426 404" fill="none" xmlns="http://www.w3.org/2000/svg">
<path d="M105.496 236.002L105.046 235.529L107.875 232.821L108.328 233.292L105.496 236.002ZM111.169 230.568L110.709 230.102C111.632 229.194 112.556 228.257 113.461 227.315L113.932 227.771C113.024 228.713 112.095 229.655 111.169 230.568ZM116.619 224.9L116.135 224.461C117.001 223.508 117.875 222.522 118.733 221.53L119.228 221.957C118.367 222.948 117.491 223.937 116.619 224.9ZM121.761 218.948L121.256 218.534C122.072 217.54 122.896 216.509 123.702 215.476L124.226 215.879C123.407 216.912 122.58 217.946 121.761 218.943V218.948ZM126.601 212.752L126.078 212.359C126.845 211.328 127.619 210.266 128.381 209.191L128.904 209.57C128.15 210.64 127.373 211.71 126.601 212.747V212.752ZM131.162 206.323L130.62 205.957C131.353 204.875 132.074 203.787 132.784 202.691L133.334 203.047C132.617 204.153 131.893 205.245 131.162 206.323ZM167.008 201.789C165.802 201.789 164.606 201.56 163.484 201.116L163.725 200.509C164.77 200.922 165.884 201.134 167.008 201.134C167.171 201.119 167.291 201.134 167.432 201.134L167.464 201.789C167.296 201.796 167.116 201.786 166.993 201.799L167.008 201.789ZM171.352 200.671L171.025 200.103C172.115 199.473 173.018 198.563 173.641 197.469L174.209 197.796C173.525 198.996 172.533 199.992 171.336 200.682L171.352 200.671ZM135.445 199.727L134.891 199.381C135.578 198.272 136.256 197.156 136.924 196.032L137.486 196.367C136.806 197.499 136.12 198.623 135.43 199.737L135.445 199.727ZM160.169 198.816C159.256 197.818 158.527 196.667 158.015 195.415L158.617 195.153C159.101 196.33 159.789 197.413 160.648 198.353L160.169 198.816ZM175.285 193.897L174.63 193.881V193.709C174.636 192.752 174.439 191.805 174.052 190.93C173.955 190.713 173.845 190.498 173.728 190.291L174.298 189.97C174.424 190.195 174.541 190.425 174.649 190.66C175.073 191.62 175.29 192.659 175.285 193.709V193.897ZM139.723 193.212L139.221 192.79C140.069 191.778 140.997 190.835 141.994 189.97L142.421 190.464C141.445 191.31 140.537 192.232 139.708 193.222L139.723 193.212ZM156.992 191.55C156.918 190.921 156.88 190.289 156.88 189.656C156.881 188.956 156.925 188.257 157.013 187.562L157.662 187.644C157.578 188.314 157.535 188.988 157.534 189.664C157.534 190.271 157.57 190.877 157.644 191.479L156.992 191.55ZM145.553 188.175L145.21 187.617C146.338 186.922 147.515 186.31 148.732 185.786L148.994 186.388C147.804 186.898 146.654 187.495 145.553 188.175ZM171.195 187.5C170.169 186.738 169.046 186.117 167.856 185.652L168.1 185.045C169.346 185.536 170.522 186.191 171.595 186.992L171.195 187.5ZM152.633 185.111L152.461 184.48C153.739 184.133 155.04 183.876 156.354 183.711L156.435 184.36C155.153 184.522 153.883 184.773 152.636 185.111H152.633ZM164.146 184.569C162.877 184.33 161.591 184.196 160.3 184.166L160.315 183.512C161.642 183.542 162.965 183.68 164.269 183.925L164.146 184.569ZM158.554 183.907L157.94 183.687C158.393 182.435 158.971 181.231 159.666 180.095L160.224 180.438C159.553 181.535 158.996 182.697 158.56 183.907H158.554ZM162.555 177.366L162.074 176.921C162.265 176.717 162.461 176.515 162.66 176.317C163.407 175.58 164.207 174.9 165.054 174.281L165.441 174.804C164.62 175.403 163.844 176.063 163.12 176.777C162.932 176.973 162.744 177.17 162.56 177.366H162.555ZM168.746 172.805L168.455 172.219C169.644 171.63 170.879 171.14 172.147 170.754L172.338 171.379C171.106 171.756 169.906 172.233 168.751 172.805H168.746ZM176.124 170.403L175.962 169.77C177.242 169.443 178.513 169.098 179.743 168.75L179.921 169.38C178.691 169.731 177.414 170.074 176.13 170.403H176.124ZM183.691 168.252L183.495 167.63C184.756 167.232 186.007 166.816 187.211 166.397L187.425 167.015C186.222 167.436 184.966 167.86 183.697 168.252H183.691ZM191.12 165.654L190.884 165.045C192.109 164.568 193.326 164.071 194.503 163.564L194.765 164.163C193.582 164.676 192.357 165.175 191.125 165.654H191.12ZM198.347 162.533L198.064 161.944L201.594 160.23L201.879 160.819L198.347 162.533ZM205.411 159.102L205.126 158.514L208.656 156.797L208.941 157.386L205.411 159.102ZM212.476 155.67L212.191 155.081L215.72 153.364L216.006 153.953L212.476 155.67ZM219.541 152.237L219.255 151.651L222.785 149.934L223.07 150.523L219.541 152.237ZM226.605 148.806L226.32 148.218L229.85 146.501L230.135 147.09L226.605 148.806Z" fill="#FFAA65"/>
<path d="M214.533 27.1663C214.53 27.2999 214.535 27.4336 214.549 27.5666H300.572C300.347 20.4758 294.175 14.7901 286.605 14.7901C284.278 14.7833 281.983 15.3333 279.912 16.394C280.017 10.8758 277.366 5.59039 272.479 2.75407C265.152 -1.49518 255.555 1.38823 251.068 9.19858C249.76 11.4618 248.987 13.9935 248.807 16.6008C245.23 14.9654 240.798 13.9842 235.986 13.9842C224.138 13.9895 214.533 19.8923 214.533 27.1663Z" fill="#FFF2E8"/>
<path d="M71.4166 228.181H0.482422V227.92C0.670812 221.917 5.80445 217.215 12.1679 217.215C13.9764 217.216 15.7629 217.613 17.4009 218.38C17.448 213.785 19.8029 209.601 23.6152 207.39C25.0325 206.574 26.598 206.048 28.2205 205.843C29.843 205.638 31.4902 205.757 33.0661 206.195C34.8349 206.676 36.4902 207.504 37.9358 208.631C39.3813 209.758 40.5882 211.161 41.4861 212.759C42.5182 214.542 43.152 216.528 43.3438 218.579C46.3633 217.257 49.9113 216.561 53.6242 216.561C63.4519 216.561 71.4454 221.514 71.4454 227.6C71.4476 227.719 71.4432 227.838 71.4323 227.956L71.4166 228.181ZM0.992645 227.692H70.9666V227.611C70.9666 221.794 63.1929 217.061 53.6347 217.061C49.859 217.061 46.2639 217.794 43.2392 219.18L42.9147 219.327L42.8912 218.974C42.7494 216.874 42.1272 214.835 41.0727 213.013C40.2058 211.472 39.0412 210.118 37.6465 209.03C36.2517 207.943 34.6548 207.143 32.9484 206.679C31.435 206.259 29.8531 206.144 28.2949 206.34C26.7367 206.537 25.2331 207.042 23.8716 207.825C20.1038 210.012 17.817 214.209 17.9033 218.78V219.191L17.537 219.005C15.8746 218.156 14.0344 217.714 12.1679 217.715C6.16815 217.715 1.30663 222.077 0.992645 227.692Z" fill="#FFAA65"/>
<path d="M210.124 221.117C210.125 225.131 211.72 228.981 214.558 231.819C217.397 234.658 221.246 236.253 225.261 236.253H393.391C397.405 236.253 401.255 234.658 404.094 231.819C406.932 228.981 408.527 225.131 408.528 221.117V118.81H210.124V221.117Z" fill="white"/>
<path d="M199.742 144.905C202.071 137.469 209.397 131.752 217.417 131.158C225.436 130.564 233.613 135.083 237.122 142.087C241.389 142.048 245.591 144.413 247.664 148.019C248.68 149.829 249.183 151.882 249.118 153.957C249.053 156.032 248.424 158.05 247.297 159.793C252.376 160.675 256.937 164.016 259.184 168.509C260.29 170.757 260.838 173.238 260.782 175.743C260.727 178.248 260.069 180.703 258.865 182.9C264.457 180.058 271.608 180.315 276.972 183.554C282.335 186.793 285.716 192.892 285.528 198.991C289.01 193.528 295.688 190.124 302.326 190.427C308.964 190.731 315.291 194.726 318.245 200.483C321.361 191.157 329.669 183.63 339.501 181.225C349.334 178.82 360.363 181.615 367.721 188.376C378.789 190.108 386.853 202.123 383.969 212.582C389.948 217.529 393.004 225.573 391.754 233.072C390.503 240.571 384.992 247.269 377.713 250.134L187.311 250.019L171.088 177.376L199.742 144.905Z" fill="#FFC08D"/>
<g opacity="0.8">
<path d="M196.722 169.029C198.967 161.593 206.06 155.879 213.808 155.269C221.555 154.659 229.455 159.194 232.838 166.183C234.91 166.163 236.949 166.704 238.739 167.747C240.53 168.79 242.006 170.298 243.011 172.11C244.016 173.922 244.514 175.972 244.451 178.043C244.389 180.114 243.768 182.13 242.655 183.878C245.12 184.318 247.446 185.337 249.441 186.85C251.436 188.363 253.044 190.328 254.133 192.583C255.222 194.838 255.761 197.319 255.705 199.822C255.649 202.326 255 204.781 253.812 206.985C256.529 205.553 259.574 204.859 262.643 204.972C265.712 205.085 268.698 206 271.304 207.626C273.909 209.253 276.042 211.534 277.49 214.242C278.939 216.95 279.652 219.991 279.559 223.061C282.929 217.595 289.381 214.185 295.781 214.484C302.181 214.782 308.307 218.772 311.153 224.526C314.173 215.198 322.206 207.665 331.706 205.253C341.207 202.84 351.853 205.624 358.965 212.38C369.656 214.102 377.438 226.112 374.646 236.572C380.416 241.515 383.362 249.556 382.148 257.055C380.934 264.554 375.606 271.257 368.57 274.128L184.615 274.156L168.989 201.527L196.722 169.029Z" fill="white"/>
</g>
<path opacity="0.7" d="M342.971 122.094C287.864 173.917 248.775 187.892 199.556 192.887L196.285 245.218L247.962 262.879C293.097 261.571 336.434 196.231 363.204 140.177L342.971 122.094Z" fill="#FFF2E0"/>
<path d="M350.731 122.769C341.772 133.369 328.261 143.508 312.323 157.203L334.069 148.341C331.403 152.757 327.528 158.943 325.343 161.593C330.354 159.28 338.426 154.191 341.089 151.493C341.089 155.259 336.552 161.557 334.574 164.997C346.173 155.07 356.726 142.95 360.133 132.306L350.731 122.769Z" fill="#FFA121"/>
<path opacity="0.4" d="M353.272 123.306C347.971 130.331 340.041 137.103 330.666 146.224L343.356 140.206C341.765 143.123 339.452 147.208 338.162 148.963C341.09 147.393 345.815 143.992 347.39 142.194C347.351 144.656 344.659 148.825 343.466 151.091C350.287 144.479 356.525 136.438 358.61 129.444L353.262 123.303" fill="white"/>
<path d="M270.985 159.306C271.056 160.947 270.985 163.713 269.347 164.66C266.615 166.23 264.467 162.399 263.462 160.473C262.267 158.168 262.573 155.306 265.278 154.28C268.853 152.919 270.854 156.25 270.985 159.306Z" fill="#FFC08D"/>
<path d="M400.535 209.049C400.605 210.687 400.535 213.453 398.897 214.403C396.165 215.973 394.017 212.142 393.012 210.216C391.817 207.911 392.123 205.051 394.828 204.023C398.402 202.66 400.404 205.993 400.535 209.049Z" fill="#FFC08D"/>
<path d="M256.466 143.063C257.73 143.063 258.755 142.038 258.755 140.774C258.755 139.509 257.73 138.484 256.466 138.484C255.201 138.484 254.176 139.509 254.176 140.774C254.176 142.038 255.201 143.063 256.466 143.063Z" fill="#FFC08D"/>
<path d="M374.454 185.194C376.177 184.337 376.88 182.245 376.023 180.522C375.166 178.798 373.075 178.095 371.351 178.952C369.627 179.809 368.925 181.901 369.781 183.624C370.638 185.348 372.73 186.051 374.454 185.194Z" fill="#FFC08D"/>
<path d="M393.391 236.58H225.263C221.163 236.576 217.232 234.945 214.333 232.046C211.434 229.147 209.802 225.217 209.797 221.117V118.494H408.855V221.117C408.85 225.217 407.219 229.147 404.32 232.046C401.421 234.945 397.491 236.576 393.391 236.58ZM210.443 119.148V221.117C210.448 225.043 212.01 228.808 214.787 231.584C217.564 234.361 221.329 235.922 225.255 235.926H393.391C397.318 235.922 401.082 234.361 403.858 231.584C406.635 228.808 408.196 225.043 408.201 221.117V119.148H210.443Z" fill="#FFAA65"/>
<path d="M393.391 79.1881H225.261C223.272 79.1881 221.303 79.58 219.466 80.3413C217.629 81.1027 215.959 82.2186 214.554 83.6252C213.148 85.0319 212.033 86.7018 211.273 88.5395C210.513 90.3771 210.123 92.3466 210.124 94.3352V118.831H408.528V94.3352C408.53 92.3465 408.139 90.3769 407.379 88.5391C406.619 86.7012 405.505 85.0312 404.099 83.6245C402.693 82.2177 401.024 81.1018 399.186 80.3406C397.349 79.5794 395.38 79.1878 393.391 79.1881Z" fill="white"/>
<path d="M408.855 119.148H209.797V94.3352C209.802 90.235 211.433 86.3041 214.332 83.4051C217.232 80.5061 221.163 78.8756 225.263 78.8715H393.391C397.491 78.8756 401.422 80.5062 404.321 83.4053C407.22 86.3044 408.851 90.2352 408.855 94.3352V119.148ZM210.443 118.494H408.201V94.3352C408.196 90.4087 406.635 86.6442 403.858 83.8678C401.082 81.0914 397.318 79.5297 393.391 79.5256H225.263C221.335 79.5277 217.568 81.0883 214.79 83.8649C212.011 86.6414 210.448 90.4071 210.443 94.3352V118.494Z" fill="#FFAA65"/>
<path d="M238.233 100.645C239.145 96.1531 236.242 91.7725 231.75 90.861C227.257 89.9495 222.877 92.8523 221.965 97.3445C221.054 101.837 223.957 106.217 228.449 107.129C232.941 108.04 237.322 105.138 238.233 100.645Z" fill="#FFC08D"/>
<path d="M260.426 104.873C263.667 101.632 263.667 96.3766 260.426 93.1354C257.185 89.8942 251.93 89.8942 248.689 93.1354C245.447 96.3766 245.447 101.632 248.689 104.873C251.93 108.114 257.185 108.114 260.426 104.873Z" fill="white"/>
<path d="M254.555 107.63C252.847 107.63 251.178 107.123 249.758 106.175C248.338 105.226 247.231 103.877 246.578 102.3C245.924 100.722 245.753 98.9857 246.086 97.3108C246.419 95.6358 247.242 94.0973 248.449 92.8897C249.657 91.6822 251.195 90.8598 252.87 90.5266C254.545 90.1935 256.281 90.3645 257.859 91.018C259.437 91.6715 260.786 92.7782 261.734 94.1982C262.683 95.6181 263.19 97.2875 263.19 98.9953C263.19 101.285 262.28 103.482 260.661 105.101C259.041 106.72 256.845 107.63 254.555 107.63ZM254.555 91.0332C252.978 91.0327 251.436 91.4998 250.125 92.3755C248.814 93.2512 247.791 94.4962 247.187 95.953C246.584 97.4097 246.425 99.0128 246.733 100.56C247.04 102.106 247.799 103.527 248.914 104.642C250.029 105.758 251.449 106.517 252.996 106.825C254.543 107.133 256.146 106.975 257.603 106.372C259.06 105.768 260.305 104.746 261.181 103.435C262.057 102.124 262.525 100.583 262.525 99.0057C262.522 96.8926 261.682 94.8667 260.188 93.3723C258.694 91.8778 256.668 91.0366 254.555 91.0332Z" fill="#FFAA65"/>
<path d="M317.729 91.0829H284.685C280.311 91.0829 276.765 94.6289 276.765 99.0031V99.0057C276.765 103.38 280.311 106.926 284.685 106.926H317.729C322.103 106.926 325.649 103.38 325.649 99.0057V99.0031C325.649 94.6289 322.103 91.0829 317.729 91.0829Z" fill="white"/>
<path d="M317.721 107.253H284.685C282.561 107.16 280.555 106.251 279.085 104.716C277.615 103.18 276.795 101.137 276.795 99.011C276.795 96.8853 277.615 94.8416 279.085 93.306C280.555 91.7705 282.561 90.8616 284.685 90.7689H317.721C319.845 90.8616 321.851 91.7705 323.321 93.306C324.791 94.8416 325.612 96.8853 325.612 99.011C325.612 101.137 324.791 103.18 323.321 104.716C321.851 106.251 319.845 107.16 317.721 107.253ZM284.677 91.41C282.665 91.41 280.735 92.2094 279.312 93.6324C277.889 95.0554 277.089 96.9855 277.089 98.9979C277.089 101.01 277.889 102.94 279.312 104.363C280.735 105.786 282.665 106.586 284.677 106.586H317.721C319.734 106.586 321.664 105.786 323.087 104.363C324.51 102.94 325.309 101.01 325.309 98.9979C325.309 96.9855 324.51 95.0554 323.087 93.6324C321.664 92.2094 319.734 91.41 317.721 91.41H284.677Z" fill="#FFAA65"/>
<path d="M385.163 61.1342C371.913 72.7332 349.055 64.7397 341.958 73.9997L362.25 90.0678L385.163 61.1342Z" fill="#FF6B00"/>
<path d="M341.958 73.9996C341.46 75.3259 341.331 76.7622 341.583 78.1561C341.836 79.5501 342.461 80.8497 343.392 81.9172L357.783 98.4014L362.262 90.0808L341.958 73.9996Z" fill="#FFC08D"/>
<path d="M415.195 84.9159C406.942 100.471 419.96 120.883 412.578 129.92L392.292 113.85L415.195 84.9159Z" fill="#FF6B00"/>
<path d="M412.573 129.92C411.396 130.709 410.028 131.164 408.613 131.237C407.198 131.311 405.79 131.001 404.538 130.339L385.212 120.119L392.277 113.852L412.573 129.92Z" fill="#FFC08D"/>
<path d="M425.501 41.1989L407.437 47.8291L423.188 60.3021L425.501 41.1989Z" fill="#1B1B43"/>
<path d="M423.188 60.3021C420.663 88.8903 399.542 115.563 373.887 130.381L350.511 111.887C360.321 81.012 378.589 58.9389 407.437 47.8291L423.188 60.3021Z" fill="#FDB221"/>
<path d="M350.511 111.887L340.37 118.907L369.374 141.875L373.887 130.381L350.511 111.887Z" fill="#FF6B00"/>
<path d="M401.936 83.3539C407.887 82.6465 412.137 77.2489 411.43 71.2981C410.722 65.3473 405.325 61.0967 399.374 61.8042C393.423 62.5117 389.173 67.9093 389.88 73.8601C390.588 79.8109 395.985 84.0614 401.936 83.3539Z" fill="white"/>
<path d="M401.473 80.2662L401.405 79.6147C402.033 79.5498 402.649 79.402 403.237 79.1751L403.472 79.7848C402.83 80.0322 402.158 80.1941 401.473 80.2662ZM399.433 80.2139C398.757 80.1077 398.098 79.9105 397.475 79.6278L397.737 79.0312C398.307 79.2863 398.909 79.4624 399.527 79.5545L399.433 80.2139ZM405.249 78.7984L404.862 78.2751C405.365 77.9002 405.817 77.4603 406.204 76.9668L406.727 77.3724C406.301 77.9122 405.804 78.3919 405.249 78.7984ZM395.741 78.5367C395.212 78.1045 394.743 77.6028 394.349 77.0453L394.872 76.6659C395.235 77.1761 395.664 77.6354 396.149 78.0317L395.741 78.5367ZM407.515 76.1374L406.937 75.8338C407.225 75.2783 407.439 74.6871 407.573 74.0755L408.211 74.2168C408.066 74.8885 407.832 75.5379 407.515 76.1478V76.1374ZM393.386 75.2373C393.15 74.5952 393.001 73.9248 392.941 73.2435L393.592 73.1859C393.646 73.8117 393.783 74.4275 393.998 75.0175L393.386 75.2373ZM407.73 72.223C407.697 71.6004 407.584 70.9847 407.392 70.3915L408.012 70.19C408.224 70.8397 408.349 71.5145 408.384 72.1969L407.73 72.223ZM393.689 71.3282L393.046 71.213C393.166 70.5393 393.375 69.8846 393.668 69.2663L394.26 69.5463C393.99 70.1122 393.796 70.7114 393.684 71.3282H393.689ZM406.578 68.6933C406.235 68.1702 405.823 67.695 405.354 67.2804L405.788 66.7911C406.3 67.2445 406.749 67.7636 407.125 68.3349L406.578 68.6933ZM395.272 67.9738L394.775 67.5499C395.22 67.0297 395.731 66.5704 396.295 66.1841L396.664 66.7257C396.147 67.0792 395.679 67.4998 395.272 67.9764V67.9738ZM403.805 66.2338C403.245 65.9549 402.65 65.7516 402.036 65.6294L402.162 64.9883C402.833 65.121 403.483 65.3427 404.095 65.6477L403.805 66.2338ZM398.334 65.8858L398.122 65.2683C398.767 65.0436 399.439 64.9063 400.121 64.8601L400.168 65.5116C399.543 65.5567 398.926 65.6834 398.334 65.8884V65.8858Z" fill="#FFAA65"/>
<path d="M369.752 112.151L369.237 111.743C368.475 111.14 367.367 111.269 366.763 112.031L346.419 137.727C345.815 138.489 345.944 139.597 346.706 140.201L347.221 140.608C347.984 141.212 349.091 141.083 349.695 140.321L370.039 114.625C370.643 113.862 370.514 112.755 369.752 112.151Z" fill="#1B1B43"/>
<path d="M383.231 364.623H379.307V363.969H383.231V364.623ZM375.382 364.623H371.457V363.969H375.382V364.623ZM367.532 364.623H363.607V363.969H367.532V364.623ZM359.683 364.623H355.758V363.969H359.683V364.623ZM351.833 364.623H347.908V363.969H351.833V364.623ZM343.984 364.623H340.059V363.969H343.984V364.623ZM336.134 364.623H332.209V363.969H336.134V364.623ZM328.284 364.623H324.36V363.969H328.284V364.623ZM320.435 364.623H316.51V363.969H320.435V364.623ZM312.585 364.623H308.66V363.969H312.585V364.623ZM304.736 364.623C303.39 364.611 302.055 364.383 300.782 363.948L300.994 363.331C302.201 363.742 303.466 363.958 304.741 363.969L304.736 364.623ZM383.705 364.623L383.682 363.969C384.956 363.923 386.216 363.672 387.41 363.223L387.64 363.836C386.378 364.307 385.049 364.573 383.702 364.623H383.705ZM297.244 362.062C296.174 361.246 295.242 360.263 294.484 359.152L295.023 358.783C295.742 359.837 296.626 360.769 297.639 361.543L297.244 362.062ZM391.12 361.842L390.71 361.334C391.702 360.532 392.559 359.575 393.248 358.5L393.8 358.856C393.071 359.985 392.165 360.989 391.118 361.831L391.12 361.842ZM292.781 355.52C292.464 354.403 292.303 353.246 292.304 352.085V351.561H292.959V352.085C292.958 353.185 293.109 354.281 293.409 355.34L292.781 355.52ZM395.396 355.175L394.763 355.015C395.004 354.057 395.126 353.073 395.126 352.085V351.203H395.78V352.064C395.781 353.109 395.651 354.151 395.393 355.164L395.396 355.175ZM292.956 347.616H292.302V343.691H292.956V347.616ZM395.786 347.27H395.131V343.346H395.786V347.27ZM292.956 339.766H292.302V335.841H292.956V339.766ZM395.786 339.421H395.131V335.496H395.786V339.421ZM292.956 331.917H292.302V327.992H292.956V331.917ZM395.786 331.571H395.131V327.646H395.786V331.571ZM292.956 324.067H292.302V320.142H292.956V324.067ZM395.786 323.722H395.131V319.797H395.786V323.722ZM292.956 316.217H292.302V312.293H292.956V316.217ZM395.786 315.872H395.131V311.947H395.786V315.872ZM292.956 308.368H292.302V305.751C292.302 305.303 292.325 304.855 292.372 304.409L293.024 304.48C292.979 304.902 292.956 305.326 292.956 305.751V308.368ZM395.786 308.022H395.131V305.751C395.131 305.213 395.095 304.675 395.024 304.142L395.673 304.056C395.747 304.618 395.785 305.184 395.786 305.751V308.022ZM294.037 300.814L293.44 300.552C294 299.327 294.754 298.201 295.672 297.216L296.151 297.663C295.278 298.591 294.561 299.654 294.029 300.811L294.037 300.814ZM393.915 300.51C393.352 299.365 392.608 298.318 391.712 297.41L392.18 296.952C393.124 297.91 393.909 299.013 394.503 300.22L393.915 300.51ZM299.144 295.314L298.83 294.741C300.011 294.093 301.288 293.642 302.614 293.404L302.729 294.047C301.473 294.274 300.263 294.701 299.144 295.314ZM388.629 295.157C387.494 294.576 386.272 294.183 385.011 293.993L385.108 293.346C386.439 293.547 387.729 293.961 388.928 294.573L388.629 295.157ZM381.141 293.849H377.216V293.194H381.141V293.849ZM373.291 293.849H369.366V293.194H373.291V293.849ZM365.442 293.849H361.517V293.194H365.442V293.849ZM357.592 293.849H353.667V293.194H357.592V293.849ZM349.742 293.849H345.818V293.194H349.742V293.849ZM341.893 293.849H337.968V293.194H341.893V293.849ZM334.043 293.849H330.119V293.194H334.043V293.849ZM326.194 293.849H322.269V293.194H326.194V293.849ZM318.344 293.849H314.419V293.194H318.344V293.849ZM310.495 293.849H306.57V293.194H310.495V293.849Z" fill="#FFAA65"/>
<path d="M376.072 280.572H292.565C287.232 280.572 282.908 284.896 282.908 290.23V343.625C282.908 348.959 287.232 353.283 292.565 353.283H376.072C381.406 353.283 385.73 348.959 385.73 343.625V290.23C385.73 284.896 381.406 280.572 376.072 280.572Z" fill="#FFAA65"/>
<path d="M311.92 323.044H300.787V345.653H311.92V323.044Z" fill="white"/>
<path d="M330.563 323.769H319.429V345.653H330.563V323.769Z" fill="white"/>
<path d="M349.208 312.337H338.075V345.653H349.208V312.337Z" fill="white"/>
<path d="M367.854 302.564H356.72V345.653H367.854V302.564Z" fill="white"/>
<path d="M364.188 290.813H304.45V293.425H364.188V290.813Z" fill="white"/>
<path d="M122.562 209.591C120.668 203.029 116.661 197.275 111.161 193.225L108.953 191.597L110.829 230.395L125.325 219.183L122.562 209.591Z" fill="#FFA121"/>
<path d="M169.144 256.474L165.923 250.168C165.52 249.378 164.957 248.68 164.269 248.119C163.582 247.558 162.785 247.147 161.93 246.91L152.456 244.294L128.08 228.731L125.325 219.178L110.829 230.395L110.96 233.119C111.089 235.797 111.966 238.385 113.493 240.59C115.019 242.794 117.133 244.526 119.594 245.589L143.264 255.794L154.515 256.055C158.141 257.303 159.392 260.43 161.64 259.305C162.479 258.886 159.204 253.491 159.204 253.491L164.654 259.472L169.144 256.474Z" fill="#FFBC96"/>
<path d="M127.788 228.508L124.603 232.26L125.175 232.746L128.361 228.995L127.788 228.508Z" fill="#D28572"/>
<path d="M126.748 272.184L144.483 270.614C156.027 269.596 166.069 278.916 166.632 291.174L170.638 378.517L146.176 379.276L126.748 272.184Z" fill="#DF6B00"/>
<path d="M148.144 378.415L148.892 402.542H185.144L167.268 387.667L166.143 376.042L148.144 378.415Z" fill="#1B1B43"/>
<path d="M166.805 387.084L159.18 392.959L160.095 394.146L167.72 388.272L166.805 387.084Z" fill="white"/>
<path d="M139.894 378.415L140.642 402.542H176.894L159.018 387.667L157.893 376.042L139.894 378.415Z" fill="#FFC08D"/>
<path d="M158.556 387.085L150.931 392.959L151.846 394.147L159.471 388.272L158.556 387.085Z" fill="white"/>
<path d="M166.893 380.791H136.892L115.51 314.998L112.517 305.788L69.765 305.599C67.1249 305.563 64.5974 304.341 62.4387 302.533C57.8991 298.7 55.8058 292.669 56.6379 286.789L60.39 260.035L123.901 268.293C129.777 269.056 135.269 271.63 139.615 275.657C143.961 279.685 146.944 284.966 148.151 290.766L166.893 380.791Z" fill="#FF6B00"/>
<path d="M121.33 305.788L115.511 314.998L112.518 305.788H121.33Z" fill="#1B1B43"/>
<path d="M113.477 255.192C113.168 256.429 112.846 257.667 112.517 258.913L110.266 268.099L80.6394 266.869L59.3095 265.98C57.9798 265.926 56.6779 265.584 55.4941 264.976C54.3104 264.368 53.2734 263.509 52.4553 262.46C51.6372 261.41 51.0576 260.195 50.7569 258.899C50.4562 257.602 50.4416 256.256 50.7142 254.954L60.657 207.095C61.281 203.136 63.1964 199.495 66.1048 196.738C69.0133 193.981 72.7518 192.262 76.7382 191.851L101.072 189.347L108.945 191.597C116.632 195.721 116.64 203.199 117.009 208.097C118.629 229.532 116.64 242.515 113.477 255.192Z" fill="#FFA121"/>
<path opacity="0.3" d="M93.3901 253.661C93.084 254.899 112.847 257.667 112.517 258.913L110.267 268.099L80.6397 266.869C70.2914 259.062 66.4137 242.073 62.6406 220.787L93.3901 253.661Z" fill="#1B1B43"/>
<path d="M87.5028 203.183C88.7825 204.581 90.277 205.765 91.9299 206.692C93.5626 207.621 95.3588 208.228 97.2206 208.479C99.0521 208.717 100.991 208.563 102.603 207.694C104.251 206.875 105.298 205.145 105.481 203.275L105.774 203.293C105.765 204.292 105.509 205.272 105.028 206.148C104.525 207.031 103.794 207.763 102.912 208.267C101.151 209.285 99.0574 209.471 97.1133 209.222C95.1599 208.949 93.2835 208.277 91.6002 207.249C89.9257 206.242 88.455 204.929 87.2646 203.379L87.5028 203.183Z" fill="#1B1B43"/>
<path d="M117.672 232.431L117.112 232.391C117.651 224.845 117.112 215.57 115.49 204.826L116.044 204.743C117.667 215.528 118.214 224.843 117.672 232.431Z" fill="#1B1B43"/>
<path d="M168.019 259.035H140.142V264.535H168.019V259.035Z" fill="#1B1B43"/>
<path d="M216.27 264.536H160.269L186.02 215.285H242.022L216.27 264.536Z" fill="#FFAA65"/>
<path d="M93.6725 149.971C87.1102 143.5 74.734 146.219 74.9224 157.095C61.4211 160.657 60.6702 175.471 66.1073 183.065L70.7962 183.439L71.8271 177.907L74.5456 183.533L87.6728 184.378L93.6725 149.971Z" fill="#1B1B43"/>
<path d="M104.641 174.158V194.828C104.641 195.017 104.641 195.197 104.617 195.378C104.537 196.386 104.238 197.364 103.741 198.244C103.243 199.125 102.559 199.885 101.736 200.473C100.914 201.061 99.9725 201.462 98.9787 201.648C97.9848 201.835 96.9623 201.801 95.9827 201.55C92.9686 200.773 90.3011 199.01 88.4046 196.541C86.508 194.073 85.4915 191.041 85.5166 187.929L85.6212 174.166L104.641 174.158Z" fill="#FFBC96"/>
<path d="M104.642 183.091V194.81C104.642 194.999 104.642 195.179 104.618 195.36C99.092 194.462 92.6998 188.065 91.1299 181.097L104.642 183.091Z" fill="#1B1B43"/>
<path d="M115.824 175.689C115.544 177.353 115.151 178.997 114.647 180.608C112.996 185.841 110.034 190.2 104.73 189.444C92.265 187.659 85.3286 174.817 85.3286 174.817L93.8559 165.068L99.5782 157.373L116.732 164.783C116.738 168.437 116.435 172.085 115.824 175.689Z" fill="#FFBC96"/>
<path d="M89.0154 171.523C94.4865 171.348 98.7175 168.561 100.528 160.646C100.528 160.646 113.278 171.635 119.527 165.772C124.76 160.853 115.882 149.534 101.185 148.183C95.8176 147.717 90.4786 149.349 86.289 152.736C79.1641 158.446 78.4838 171.719 85.1403 176.314L89.0154 171.523Z" fill="#1B1B43"/>
<path d="M82.6097 157.655C82.2512 156.363 82.5181 154.929 83.0964 153.696C83.6926 152.457 84.5719 151.375 85.6632 150.538C86.7382 149.695 87.9908 149.107 89.3263 148.819C90.6468 148.514 92.0292 148.62 93.2878 149.123C92.1177 149.484 90.9799 149.943 89.8863 150.494C88.8719 151.013 87.9083 151.627 87.0081 152.325C86.1138 153.013 85.2914 153.79 84.5538 154.644C83.7769 155.558 83.1233 156.571 82.6097 157.655Z" fill="#FFA121"/>
<path d="M89.3049 177.179C91.4916 176.303 92.4065 173.451 91.3484 170.808C90.2902 168.166 87.6598 166.733 85.4731 167.608C83.2864 168.484 82.3715 171.336 83.4296 173.979C84.4877 176.622 87.1182 178.054 89.3049 177.179Z" fill="#FFBC96"/>
<path d="M87.3747 175.241C87.5027 174.381 87.4465 173.503 87.2098 172.666C86.9482 171.881 86.4432 171.175 85.8623 170.458L86.0455 170.23C86.4888 170.456 86.8827 170.767 87.2044 171.147C87.5261 171.526 87.769 171.966 87.919 172.44C88.069 172.914 88.1232 173.413 88.0782 173.909C88.0333 174.404 87.8902 174.885 87.6572 175.325L87.3747 175.241Z" fill="#1B1B43"/>
<path d="M107.875 172.475C107.85 172.721 107.755 172.954 107.6 173.146C107.446 173.338 107.239 173.481 107.004 173.558C106.77 173.635 106.518 173.642 106.28 173.579C106.042 173.515 105.827 173.384 105.662 173.201C105.496 173.018 105.388 172.791 105.349 172.548C105.31 172.304 105.343 172.054 105.443 171.829C105.543 171.604 105.707 171.412 105.914 171.278C106.121 171.144 106.362 171.073 106.609 171.073C106.962 171.092 107.294 171.25 107.531 171.513C107.769 171.776 107.892 172.122 107.875 172.475Z" fill="#1B1B43"/>
<path d="M114.513 173.58C114.465 173.793 114.355 173.988 114.198 174.141C114.04 174.294 113.842 174.397 113.627 174.44C113.412 174.482 113.189 174.461 112.986 174.379C112.782 174.297 112.607 174.158 112.481 173.978C112.355 173.799 112.284 173.587 112.277 173.368C112.269 173.149 112.325 172.932 112.438 172.744C112.551 172.556 112.716 172.405 112.913 172.309C113.11 172.213 113.33 172.176 113.548 172.203C113.858 172.259 114.133 172.435 114.314 172.693C114.495 172.95 114.567 173.269 114.513 173.58Z" fill="#1B1B43"/>
<path d="M107.8 168.956C107.85 169.61 106.803 169.673 105.257 169.72C103.71 169.767 102.64 170.243 102.64 169.827C102.64 169.411 103.77 168.349 105.293 168.093C106.858 167.826 107.737 168.176 107.8 168.956Z" fill="#1B1B43"/>
<path d="M112.732 169.587C112.616 170.233 113.388 170.398 114.529 170.599C115.67 170.801 116.408 171.384 116.465 170.968C116.523 170.552 115.798 169.398 114.697 168.98C113.595 168.561 112.865 168.818 112.732 169.587Z" fill="#1B1B43"/>
<path d="M110.895 174.744C111.191 175.092 111.509 175.422 111.847 175.73L112.352 176.201C112.554 176.375 112.73 176.576 112.876 176.798C112.97 176.948 113.025 177.12 113.035 177.298C113.044 177.48 113.001 177.661 112.912 177.821C112.761 178.069 112.554 178.279 112.308 178.433C111.877 178.693 111.4 178.866 110.903 178.941L110.795 178.679C111.183 178.448 111.557 178.193 111.913 177.915C112.055 177.798 112.173 177.655 112.261 177.494C112.321 177.371 112.302 177.329 112.234 177.183C112.067 176.921 111.643 176.544 111.363 176.165C111.046 175.785 110.797 175.353 110.628 174.888L110.895 174.744Z" fill="#1B1B43"/>
<path d="M104.547 179.372C105.314 180.249 106.117 181.057 107.069 181.57C108.048 182.084 109.164 182.277 110.259 182.122L110.337 182.405C109.769 182.662 109.147 182.779 108.524 182.748C107.889 182.715 107.27 182.536 106.716 182.224C105.644 181.606 104.797 180.662 104.298 179.529L104.547 179.372Z" fill="#1B1B43"/>
<path opacity="0.2" d="M100.049 178.564C101.759 178.564 103.145 177.178 103.145 175.469C103.145 173.759 101.759 172.373 100.049 172.373C98.3399 172.373 96.9541 173.759 96.9541 175.469C96.9541 177.178 98.3399 178.564 100.049 178.564Z" fill="#FE5B52"/>
<path opacity="0.2" d="M115.825 175.688C115.544 177.353 115.151 178.997 114.647 180.608C114.319 180.236 114.086 179.79 113.966 179.309C113.846 178.828 113.844 178.325 113.959 177.842C114.075 177.36 114.305 176.913 114.629 176.538C114.954 176.163 115.364 175.872 115.825 175.688Z" fill="#FE5B52"/>
<path d="M80.5168 212.283L62.6406 220.784L68.2452 234.074L86.9901 225.431L80.5168 212.283Z" fill="#FFA121"/>
<path d="M146.731 258.376C146.236 258.114 145.925 257.96 145.925 257.96L146.103 257.607C146.103 257.607 146.435 257.766 146.914 258.023L146.731 258.376Z" fill="#FDB221"/>
<path d="M154.144 260.223C153.565 261.364 149.141 259.347 147.079 258.334C148.675 259.219 151.428 260.951 150.206 261.911C149.224 262.67 147.047 261.055 139.923 258.101C141.003 258.612 147.372 261.642 145.765 262.788C144.018 264.033 136.519 261.288 136.519 261.288L130.014 264.784H122.528L95.5411 264.957C93.8533 264.963 92.1717 264.751 90.5382 264.326C87.3121 263.483 84.3148 261.93 81.765 259.781C80.1616 258.43 78.7597 256.856 77.6021 255.108C76.7283 253.792 75.9819 252.395 75.3728 250.937L68.2559 234.079L86.985 225.423L96.7656 245.278L129.017 252.282L138.018 250.032C139.954 249.545 142.691 250.364 144.394 251.406C148.549 253.944 154.683 259.135 154.144 260.223Z" fill="#FFBC96"/>
<path opacity="0.2" d="M91.0143 261.532C91.0156 262.483 90.85 263.427 90.525 264.321C87.2988 263.478 84.3015 261.925 81.7518 259.776C80.1483 258.425 78.7465 256.851 77.5889 255.103C78.8015 254.127 80.2652 253.515 81.8112 253.335C83.3571 253.156 84.9223 253.418 86.3259 254.09C87.7296 254.762 88.9146 255.817 89.7442 257.134C90.5738 258.451 91.0141 259.975 91.0143 261.532Z" fill="#FE5B52"/>
<path d="M128.972 252.146C131.202 251.394 133.473 250.77 135.775 250.278C136.934 250.026 138.11 249.859 139.294 249.778C139.898 249.742 140.503 249.757 141.105 249.825C141.405 249.885 141.706 249.964 142.007 250.035C142.308 250.105 142.572 250.252 142.855 250.359C145.05 251.353 146.96 252.777 148.81 254.239C150.66 255.702 152.403 257.295 154.098 258.949L154.177 259.025L154.192 259.122C154.263 259.471 154.199 259.833 154.015 260.137C153.908 260.287 153.768 260.409 153.606 260.495C153.464 260.584 153.304 260.64 153.138 260.66C152.572 260.729 151.998 260.673 151.456 260.495C150.448 260.181 149.473 259.771 148.543 259.271C147.625 258.782 146.712 258.271 145.843 257.719C144.974 257.167 144.103 256.599 143.227 256.04L143.624 255.404C145.161 256.302 146.646 257.286 148.072 258.353C148.811 258.891 149.486 259.512 150.084 260.202C150.246 260.402 150.377 260.624 150.474 260.862C150.533 261.007 150.564 261.163 150.563 261.32C150.558 261.51 150.491 261.694 150.372 261.843C150.171 262.063 149.904 262.211 149.611 262.267C149.373 262.32 149.132 262.355 148.889 262.369H148.815L148.734 262.335L140.594 258.933L140.838 258.36C142.126 258.936 143.37 259.608 144.558 260.37C145.139 260.783 145.749 261.155 146.178 261.877C146.239 261.985 146.276 262.105 146.288 262.228C146.299 262.352 146.284 262.477 146.243 262.594C146.15 262.814 145.979 262.991 145.762 263.091C145.411 263.257 145.028 263.347 144.639 263.353C143.182 263.387 141.811 263.044 140.453 262.709C139.095 262.374 137.763 261.924 136.447 261.45L136.547 261.173C137.855 261.615 139.2 262.003 140.547 262.324C141.895 262.646 143.276 262.924 144.613 262.848C145.252 262.822 146.013 262.542 145.702 262.12C145.409 261.628 144.804 261.21 144.252 260.841C143.081 260.114 141.856 259.475 140.589 258.931L140.835 258.358L149.006 261.696L148.852 261.67C149.049 261.658 149.245 261.63 149.438 261.587C149.581 261.562 149.714 261.499 149.823 261.403C149.935 261.356 149.784 260.953 149.527 260.652C148.968 260.004 148.336 259.421 147.646 258.915C146.239 257.873 144.774 256.912 143.258 256.037L143.653 255.404C144.516 255.956 145.354 256.552 146.23 257.076C147.107 257.599 147.983 258.122 148.878 258.612C149.762 259.091 150.689 259.486 151.647 259.792C152.082 259.939 152.544 259.992 153.002 259.949L153.146 259.925C153.185 259.909 153.222 259.889 153.258 259.868C153.345 259.844 153.371 259.773 153.428 259.731C153.506 259.587 153.535 259.42 153.51 259.258L153.604 259.431C151.945 257.793 150.202 256.223 148.397 254.739C146.591 253.256 144.707 251.845 142.64 250.872L141.855 250.555C141.594 250.49 141.316 250.414 141.044 250.356C140.479 250.286 139.908 250.264 139.338 250.291C138.177 250.349 137.021 250.489 135.879 250.71C133.581 251.146 131.309 251.716 129.076 252.416L128.972 252.146Z" fill="#D28572"/>
<path d="M68.36 234.333L68.1245 233.823L86.6182 225.287L78.9151 207.262L79.4332 207.04L87.3508 225.573L68.36 234.333Z" fill="#1B1B43"/>
<path d="M71.0051 313.289H70.0239V397.793H71.0051V313.289Z" fill="#1B1B43"/>
<path d="M94.1385 305.414H46.8891C43.6782 305.414 41.0752 308.016 41.0752 311.226C41.0752 314.436 43.6782 317.039 46.8891 317.039H94.1385C97.3494 317.039 99.9524 314.436 99.9524 311.226C99.9524 308.016 97.3494 305.414 94.1385 305.414Z" fill="#FFC08D"/>
<path d="M59.3805 393.591H81.6524C83.9702 393.591 86.1931 394.511 87.832 396.15C89.4709 397.789 90.3916 400.012 90.3916 402.33V403.29H50.6387V402.33C50.6387 401.182 50.8648 400.045 51.3042 398.985C51.7435 397.924 52.3875 396.961 53.1993 396.149C54.011 395.338 54.9748 394.694 56.0353 394.255C57.0959 393.816 58.2326 393.59 59.3805 393.591Z" fill="#FFC08D"/>
<path d="M127.687 269.68L126.857 270.203L210.617 402.954L211.446 402.43L127.687 269.68Z" fill="#1B1B43"/>
<path d="M210.62 269.694L126.838 402.43L127.668 402.954L211.45 270.218L210.62 269.694Z" fill="#1B1B43"/>
<path d="M242.522 264.535H95.7661V275.603H242.522V264.535Z" fill="#FFC08D"/>
<path d="M108.069 88.0844C102.003 88.0823 96.0741 86.2818 91.0317 82.9103C85.9893 79.5389 82.0597 74.748 79.7399 69.1435C77.4201 63.5389 76.8142 57.3723 77.9988 51.4234C79.1835 45.4745 82.1054 40.0104 86.3952 35.7221C90.6851 31.4337 96.1501 28.5136 102.099 27.331C108.049 26.1484 114.215 26.7564 119.819 29.0781C125.423 31.3999 130.212 35.331 133.582 40.3746C136.952 45.4182 138.75 51.3477 138.75 57.4134C138.741 65.5469 135.505 73.3446 129.753 79.0948C124.001 84.8451 116.202 88.0782 108.069 88.0844ZM108.069 27.3992C102.132 27.3987 96.3279 29.1588 91.3913 32.4569C86.4546 35.7549 82.6069 40.4429 80.3347 45.9279C78.0624 51.4128 77.4678 57.4485 78.6259 63.2714C79.784 69.0943 82.6429 74.4431 86.841 78.6412C91.0391 82.8392 96.3878 85.6981 102.211 86.8563C108.034 88.0144 114.069 87.4197 119.554 85.1475C125.039 82.8753 129.727 79.0275 133.025 74.0909C136.323 69.1542 138.083 63.3504 138.083 57.4134C138.074 49.4559 134.909 41.8269 129.282 36.2001C123.655 30.5733 116.026 27.4082 108.069 27.3992Z" fill="#FFAA65"/>
<path d="M128.808 78.7669C147.237 78.7669 162.176 63.8273 162.176 45.3983C162.176 26.9693 147.237 12.0297 128.808 12.0297C110.379 12.0297 95.439 26.9693 95.439 45.3983C95.439 63.8273 110.379 78.7669 128.808 78.7669Z" fill="#FFC08D"/>
<path d="M128.818 46.0289L110.319 31.528L110.926 30.7535L128.797 44.7651L138.761 36.3267L139.394 37.0751L128.818 46.0289Z" fill="#1B1B43"/>
<path d="M42.2131 117.361H25.2684C23.959 117.361 22.7031 117.881 21.7772 118.807C20.8512 119.733 20.3311 120.989 20.3311 122.298V139.243C20.3311 140.552 20.8512 141.808 21.7772 142.734C22.7031 143.66 23.959 144.18 25.2684 144.18H37.3594L42.5716 151.376V144.162C43.8152 144.073 44.9789 143.516 45.8285 142.603C46.678 141.69 47.1504 140.49 47.1505 139.243V122.298C47.1505 120.989 46.6303 119.733 45.7044 118.807C44.7784 117.881 43.5226 117.361 42.2131 117.361Z" fill="white"/>
<path d="M42.899 152.386L37.1924 144.507H25.2689C23.8731 144.506 22.5348 143.951 21.5478 142.964C20.5609 141.977 20.0058 140.639 20.0044 139.243V122.298C20.0058 120.902 20.5609 119.564 21.5478 118.577C22.5348 117.59 23.8731 117.035 25.2689 117.034H42.2135C43.6091 117.036 44.9469 117.591 45.9338 118.578C46.9206 119.565 47.4759 120.903 47.478 122.298V139.243C47.4729 140.518 47.0065 141.749 46.1649 142.708C45.3232 143.666 44.1632 144.288 42.899 144.458V152.386ZM25.2689 117.688C24.0463 117.689 22.8741 118.174 22.0096 119.039C21.1452 119.903 20.6592 121.076 20.6585 122.298V139.243C20.6592 140.465 21.1452 141.638 22.0096 142.502C22.8741 143.366 24.0463 143.852 25.2689 143.853H37.5273L42.2371 150.366V143.858L42.5406 143.835C43.7001 143.747 44.7841 143.226 45.5764 142.375C46.3688 141.524 46.8114 140.406 46.816 139.243V122.298C46.8146 121.076 46.3284 119.904 45.4641 119.04C44.5998 118.175 43.428 117.689 42.2057 117.688H25.2689Z" fill="#FFAA65"/>
<path d="M33.3929 139.491L26.6108 129.692L28.2226 128.578L33.215 135.786L40.7323 122.332L42.4461 123.29L33.3929 139.491Z" fill="#FFAA65"/>
<path d="M415.695 402.312H13.6802V403.293H415.695V402.312Z" fill="#1B1B43"/>
</svg>